<svg
        width="24"
        height="24"
        viewBox="0 0 24 24"
        fill="none"
        xmlns="http://www.w3.org/2000/svg"
      >
        <g filter="url(#filter0_d_3039_24557)">
          <rect x="4" width="16" height="16" rx="8" fill="white" />
          <path
            d="M10.5004 12.3348C10.5954 12.3348 10.6904 12.2998 10.7654 12.2248L14.0254 8.96477C14.5554 8.43477 14.5554 7.56477 14.0254 7.03477L10.7654 3.77477C10.6204 3.62977 10.3804 3.62977 10.2354 3.77477C10.0904 3.91977 10.0904 4.15977 10.2354 4.30477L13.4954 7.56477C13.7354 7.80477 13.7354 8.19477 13.4954 8.43477L10.2354 11.6948C10.0904 11.8398 10.0904 12.0798 10.2354 12.2248C10.3104 12.2948 10.4054 12.3348 10.5004 12.3348Z"
            fill="#353535"
          />
        </g>
        <defs>
          <filter
            id="filter0_d_3039_24557"
            x="0"
            y="0"
            width="24"
            height="24"
            filterUnits="userSpaceOnUse"
            color-interpolation-filters="sRGB"
          >
            <feFlood flood-opacity="0" result="BackgroundImageFix" />
            <feColorMatrix
              in="SourceAlpha"
              type="matrix"
              values="0 0 0 0 0 0 0 0 0 0 0 0 0 0 0 0 0 0 127 0"
              result="hardAlpha"
            />
            <feOffset dy="4" />
            <feGaussianBlur stdDeviation="2" />
            <feComposite in2="hardAlpha" operator="out" />
            <feColorMatrix
              type="matrix"
              values="0 0 0 0 0 0 0 0 0 0 0 0 0 0 0 0 0 0 0.25 0"
            />
            <feBlend
              mode="normal"
              in2="BackgroundImageFix"
              result="effect1_dropShadow_3039_24557"
            />
            <feBlend
              mode="normal"
              in="SourceGraphic"
              in2="effect1_dropShadow_3039_24557"
              result="shape"
            />
          </filter>
        </defs>
      </svg>