<svg
        width="24"
        height="24"
        viewBox="0 0 24 24"
        fill="none"
        xmlns="http://www.w3.org/2000/svg"
      >
        <g filter="url(#filter0_d_3036_20832)">
          <rect x="4" width="16" height="16" rx="8" fill="white" />
          <path
            d="M13.4996 12.3348C13.4046 12.3348 13.3096 12.2998 13.2346 12.2248L9.97465 8.96477C9.44465 8.43477 9.44465 7.56477 9.97465 7.03477L13.2346 3.77477C13.3796 3.62977 13.6196 3.62977 13.7646 3.77477C13.9096 3.91977 13.9096 4.15977 13.7646 4.30477L10.5046 7.56477C10.2646 7.80477 10.2646 8.19477 10.5046 8.43477L13.7646 11.6948C13.9096 11.8398 13.9096 12.0798 13.7646 12.2248C13.6896 12.2948 13.5946 12.3348 13.4996 12.3348Z"
            fill="#353535"
          />
        </g>
        <defs>
          <filter
            id="filter0_d_3036_20832"
            x="0"
            y="0"
            width="24"
            height="24"
            filterUnits="userSpaceOnUse"
            color-interpolation-filters="sRGB"
          >
            <feFlood flood-opacity="0" result="BackgroundImageFix" />
            <feColorMatrix
              in="SourceAlpha"
              type="matrix"
              values="0 0 0 0 0 0 0 0 0 0 0 0 0 0 0 0 0 0 127 0"
              result="hardAlpha"
            />
            <feOffset dy="4" />
            <feGaussianBlur stdDeviation="2" />
            <feComposite in2="hardAlpha" operator="out" />
            <feColorMatrix
              type="matrix"
              values="0 0 0 0 0 0 0 0 0 0 0 0 0 0 0 0 0 0 0.25 0"
            />
            <feBlend
              mode="normal"
              in2="BackgroundImageFix"
              result="effect1_dropShadow_3036_20832"
            />
            <feBlend
              mode="normal"
              in="SourceGraphic"
              in2="effect1_dropShadow_3036_20832"
              result="shape"
            />
          </filter>
        </defs>
      </svg>