<svg width="140" height="140" viewBox="0 0 140 140" fill="currentColor" xmlns="http://www.w3.org/2000/svg">
<rect x="2" y="2" width="136" height="136" rx="68" stroke="#417F56" stroke-width="4"/>
<path d="M70.0003 103.6C69.0003 103.6 68.0003 103.367 67.167 102.9C60.9337 99.5 49.967 95.9 43.1003 95L42.1337 94.8667C37.767 94.3333 34.167 90.2333 34.167 85.8V45.5333C34.167 42.9 35.2003 40.5 37.1003 38.7667C39.0003 37.0333 41.467 36.2 44.067 36.4333C51.4003 37 62.467 40.6667 68.7337 44.6L69.5337 45.0667C69.767 45.2 70.267 45.2 70.467 45.1L71.0003 44.7667C77.267 40.8333 88.3337 37.1 95.7003 36.4667C95.767 36.4667 96.0337 36.4667 96.1003 36.4667C98.5337 36.2333 101.034 37.1 102.9 38.8333C104.8 40.5667 105.834 42.9667 105.834 45.6V85.8333C105.834 90.3 102.234 94.3667 97.8337 94.9L96.7337 95.0333C89.867 95.9333 78.867 99.5667 72.767 102.933C71.967 103.4 71.0003 103.6 70.0003 103.6ZM43.267 41.4C42.2003 41.4 41.2337 41.7667 40.467 42.4667C39.6337 43.2333 39.167 44.3333 39.167 45.5333V85.8C39.167 87.7667 40.867 89.6667 42.767 89.9333L43.767 90.0667C51.267 91.0667 62.767 94.8333 69.4337 98.4667C69.7337 98.6 70.167 98.6333 70.3337 98.5667C77.0003 94.8667 88.567 91.0667 96.1003 90.0667L97.2337 89.9333C99.1337 89.7 100.834 87.7667 100.834 85.8V45.5667C100.834 44.3333 100.367 43.2667 99.5337 42.4667C98.667 41.7 97.567 41.3333 96.3337 41.4C96.267 41.4 96.0003 41.4 95.9337 41.4C89.567 41.9667 79.3003 45.4 73.7003 48.9L73.167 49.2667C71.3337 50.4 68.7337 50.4 66.967 49.3L66.167 48.8333C60.467 45.3333 50.2003 41.9333 43.667 41.4C43.5337 41.4 43.4003 41.4 43.267 41.4Z" fill="#417F56"/>
<path d="M70 100.8C68.6333 100.8 67.5 99.6667 67.5 98.3V48.3C67.5 46.9333 68.6333 45.8 70 45.8C71.3667 45.8 72.5 46.9333 72.5 48.3V98.3C72.5 99.7 71.3667 100.8 70 100.8Z" fill="#417F56"/>
<path d="M55.833 60.8H48.333C46.9663 60.8 45.833 59.6667 45.833 58.3C45.833 56.9333 46.9663 55.8 48.333 55.8H55.833C57.1997 55.8 58.333 56.9333 58.333 58.3C58.333 59.6667 57.1997 60.8 55.833 60.8Z" fill="#417F56"/>
<path d="M58.333 70.8H48.333C46.9663 70.8 45.833 69.6667 45.833 68.3C45.833 66.9334 46.9663 65.8 48.333 65.8H58.333C59.6997 65.8 60.833 66.9334 60.833 68.3C60.833 69.6667 59.6997 70.8 58.333 70.8Z" fill="#417F56"/>
</svg>
