<svg width="16" height="16" viewBox="0 0 16 16" fill="currentColor" xmlns="http://www.w3.org/2000/svg">
<path d="M5.33203 3.83325C5.0587 3.83325 4.83203 3.60659 4.83203 3.33325V1.33325C4.83203 1.05992 5.0587 0.833252 5.33203 0.833252C5.60536 0.833252 5.83203 1.05992 5.83203 1.33325V3.33325C5.83203 3.60659 5.60536 3.83325 5.33203 3.83325Z"/>
<path d="M10.668 3.83325C10.3946 3.83325 10.168 3.60659 10.168 3.33325V1.33325C10.168 1.05992 10.3946 0.833252 10.668 0.833252C10.9413 0.833252 11.168 1.05992 11.168 1.33325V3.33325C11.168 3.60659 10.9413 3.83325 10.668 3.83325Z"/>
<path d="M5.66667 9.66655C5.58 9.66655 5.49333 9.64656 5.41333 9.61322C5.32667 9.57989 5.26 9.53321 5.19333 9.47321C5.07333 9.34654 5 9.17988 5 8.99988C5 8.91322 5.02 8.82655 5.05333 8.74655C5.08667 8.66655 5.13333 8.59322 5.19333 8.52655C5.26 8.46655 5.32667 8.41987 5.41333 8.38654C5.65333 8.28654 5.95333 8.33989 6.14 8.52655C6.26 8.65322 6.33333 8.82655 6.33333 8.99988C6.33333 9.03988 6.32667 9.08656 6.32 9.13322C6.31333 9.17322 6.3 9.21322 6.28 9.25322C6.26667 9.29322 6.24667 9.33321 6.22 9.37321C6.2 9.40655 6.16667 9.43988 6.14 9.47321C6.01333 9.59321 5.84 9.66655 5.66667 9.66655Z"/>
<path d="M7.9987 9.66658C7.91203 9.66658 7.82536 9.64659 7.74536 9.61326C7.6587 9.57992 7.59203 9.53324 7.52537 9.47324C7.40537 9.34658 7.33203 9.17992 7.33203 8.99992C7.33203 8.91325 7.35203 8.82658 7.38537 8.74658C7.4187 8.66658 7.46537 8.59325 7.52537 8.52659C7.59203 8.46659 7.6587 8.41991 7.74536 8.38657C7.98536 8.27991 8.28536 8.33992 8.47203 8.52659C8.59203 8.65325 8.66536 8.82658 8.66536 8.99992C8.66536 9.03992 8.6587 9.08659 8.65203 9.13326C8.64536 9.17326 8.63203 9.21325 8.61203 9.25325C8.5987 9.29325 8.5787 9.33325 8.55203 9.37325C8.53203 9.40658 8.4987 9.43991 8.47203 9.47324C8.34536 9.59324 8.17203 9.66658 7.9987 9.66658Z"/>
<path d="M10.3346 9.66658C10.248 9.66658 10.1613 9.64659 10.0813 9.61326C9.99463 9.57992 9.92797 9.53324 9.8613 9.47324C9.83464 9.43991 9.80797 9.40658 9.7813 9.37325C9.75463 9.33325 9.73464 9.29325 9.7213 9.25325C9.7013 9.21325 9.68797 9.17326 9.6813 9.13326C9.67464 9.08659 9.66797 9.03992 9.66797 8.99992C9.66797 8.82658 9.7413 8.65325 9.8613 8.52659C9.92797 8.46659 9.99463 8.41991 10.0813 8.38657C10.328 8.27991 10.6213 8.33992 10.808 8.52659C10.928 8.65325 11.0013 8.82658 11.0013 8.99992C11.0013 9.03992 10.9946 9.08659 10.988 9.13326C10.9813 9.17326 10.968 9.21325 10.948 9.25325C10.9346 9.29325 10.9146 9.33325 10.888 9.37325C10.868 9.40658 10.8346 9.43991 10.808 9.47324C10.6813 9.59324 10.508 9.66658 10.3346 9.66658Z"/>
<path d="M5.66667 12C5.58 12 5.49333 11.9801 5.41333 11.9467C5.33333 11.9134 5.26 11.8667 5.19333 11.8067C5.07333 11.68 5 11.5067 5 11.3334C5 11.2467 5.02 11.16 5.05333 11.08C5.08667 10.9934 5.13333 10.92 5.19333 10.86C5.44 10.6134 5.89333 10.6134 6.14 10.86C6.26 10.9867 6.33333 11.16 6.33333 11.3334C6.33333 11.5067 6.26 11.68 6.14 11.8067C6.01333 11.9267 5.84 12 5.66667 12Z"/>
<path d="M7.9987 12C7.82536 12 7.65203 11.9267 7.52537 11.8067C7.40537 11.68 7.33203 11.5067 7.33203 11.3334C7.33203 11.2467 7.35203 11.16 7.38537 11.08C7.4187 10.9934 7.46537 10.92 7.52537 10.86C7.77203 10.6134 8.22536 10.6134 8.47203 10.86C8.53203 10.92 8.5787 10.9934 8.61203 11.08C8.64536 11.16 8.66536 11.2467 8.66536 11.3334C8.66536 11.5067 8.59203 11.68 8.47203 11.8067C8.34536 11.9267 8.17203 12 7.9987 12Z"/>
<path d="M10.3346 11.9999C10.1613 11.9999 9.98797 11.9266 9.8613 11.8066C9.8013 11.7466 9.75464 11.6733 9.7213 11.5866C9.68797 11.5066 9.66797 11.4199 9.66797 11.3333C9.66797 11.2466 9.68797 11.1599 9.7213 11.0799C9.75464 10.9933 9.8013 10.9199 9.8613 10.8599C10.0146 10.7066 10.248 10.6333 10.4613 10.6799C10.508 10.6866 10.548 10.6999 10.588 10.7199C10.628 10.7333 10.668 10.7533 10.708 10.78C10.7413 10.8 10.7746 10.8333 10.808 10.8599C10.928 10.9866 11.0013 11.1599 11.0013 11.3333C11.0013 11.5066 10.928 11.6799 10.808 11.8066C10.6813 11.9266 10.508 11.9999 10.3346 11.9999Z"/>
<path d="M13.6654 6.56006H2.33203C2.0587 6.56006 1.83203 6.33339 1.83203 6.06006C1.83203 5.78673 2.0587 5.56006 2.33203 5.56006H13.6654C13.9387 5.56006 14.1654 5.78673 14.1654 6.06006C14.1654 6.33339 13.9387 6.56006 13.6654 6.56006Z"/>
<path d="M10.6667 15.1666H5.33333C2.9 15.1666 1.5 13.7666 1.5 11.3333V5.66659C1.5 3.23325 2.9 1.83325 5.33333 1.83325H10.6667C13.1 1.83325 14.5 3.23325 14.5 5.66659V11.3333C14.5 13.7666 13.1 15.1666 10.6667 15.1666ZM5.33333 2.83325C3.42667 2.83325 2.5 3.75992 2.5 5.66659V11.3333C2.5 13.2399 3.42667 14.1666 5.33333 14.1666H10.6667C12.5733 14.1666 13.5 13.2399 13.5 11.3333V5.66659C13.5 3.75992 12.5733 2.83325 10.6667 2.83325H5.33333Z"/>
</svg>
