<svg width="24" height="25" viewBox="0 0 24 25" fill="none" xmlns="http://www.w3.org/2000/svg">
<path d="M22 9.75H2C1.59 9.75 1.25 9.41 1.25 9C1.25 8.59 1.59 8.25 2 8.25H22C22.41 8.25 22.75 8.59 22.75 9C22.75 9.41 22.41 9.75 22 9.75Z" fill="#353535"/>
<path d="M8 17.75H6C5.59 17.75 5.25 17.41 5.25 17C5.25 16.59 5.59 16.25 6 16.25H8C8.41 16.25 8.75 16.59 8.75 17C8.75 17.41 8.41 17.75 8 17.75Z" fill="#353535"/>
<path d="M14.5 17.75H10.5C10.09 17.75 9.75 17.41 9.75 17C9.75 16.59 10.09 16.25 10.5 16.25H14.5C14.91 16.25 15.25 16.59 15.25 17C15.25 17.41 14.91 17.75 14.5 17.75Z" fill="#353535"/>
<path d="M17.56 21.75H6.44C2.46 21.75 1.25 20.55 1.25 16.61V8.39C1.25 4.45 2.46 3.25 6.44 3.25H17.55C21.53 3.25 22.74 4.45 22.74 8.39V16.6C22.75 20.55 21.54 21.75 17.56 21.75ZM6.44 4.75C3.3 4.75 2.75 5.29 2.75 8.39V16.6C2.75 19.7 3.3 20.24 6.44 20.24H17.55C20.69 20.24 21.24 19.7 21.24 16.6V8.39C21.24 5.29 20.69 4.75 17.55 4.75H6.44Z" fill="#353535"/>
</svg>
