<svg width="20" height="21" viewBox="0 0 20 21" fill="currentColor" xmlns="http://www.w3.org/2000/svg">
<path d="M10 10.7445C10.4603 10.7445 10.8334 10.3714 10.8334 9.91119C10.8334 9.45095 10.4603 9.07785 10 9.07785C9.53978 9.07785 9.16669 9.45095 9.16669 9.91119C9.16669 10.3714 9.53978 10.7445 10 10.7445Z"/>
<path d="M6.66665 10.7445C7.12688 10.7445 7.49998 10.3714 7.49998 9.91119C7.49998 9.45095 7.12688 9.07785 6.66665 9.07785C6.20641 9.07785 5.83331 9.45095 5.83331 9.91119C5.83331 10.3714 6.20641 10.7445 6.66665 10.7445Z"/>
<path d="M13.3333 10.7445C13.7936 10.7445 14.1667 10.3714 14.1667 9.91119C14.1667 9.45095 13.7936 9.07785 13.3333 9.07785C12.8731 9.07785 12.5 9.45095 12.5 9.91119C12.5 10.3714 12.8731 10.7445 13.3333 10.7445Z"/>
<path d="M2.54157 18.9697C2.71598 19.0416 2.90289 19.0785 3.09157 19.078C3.27764 19.0789 3.46201 19.0426 3.63377 18.971C3.80554 18.8994 3.9612 18.7941 4.09157 18.6614L6.1749 16.578H14.1666C15.2716 16.578 16.3314 16.139 17.1128 15.3576C17.8942 14.5762 18.3332 13.5164 18.3332 12.4114V7.41135C18.3332 6.30628 17.8942 5.24648 17.1128 4.46507C16.3314 3.68367 15.2716 3.24469 14.1666 3.24469H5.83323C4.72816 3.24469 3.66836 3.68367 2.88695 4.46507C2.10555 5.24648 1.66657 6.30628 1.66657 7.41135V17.653C1.66392 17.9348 1.7459 18.211 1.90189 18.4457C2.05788 18.6804 2.28072 18.863 2.54157 18.9697ZM3.33323 7.41135C3.33323 6.74831 3.59662 6.11243 4.06547 5.64359C4.53431 5.17475 5.17019 4.91135 5.83323 4.91135H14.1666C14.8296 4.91135 15.4655 5.17475 15.9343 5.64359C16.4032 6.11243 16.6666 6.74831 16.6666 7.41135V12.4114C16.6666 13.0744 16.4032 13.7103 15.9343 14.1791C15.4655 14.648 14.8296 14.9114 14.1666 14.9114H5.83323C5.72356 14.9107 5.61484 14.9317 5.51331 14.9732C5.41178 15.0147 5.31943 15.0758 5.24157 15.153L3.33323 17.0697V7.41135Z"/>
</svg>
