<svg width="140" height="140" viewBox="0 0 140 140" fill="currentColor" xmlns="http://www.w3.org/2000/svg">
<rect x="2" y="2" width="136" height="136" rx="68" stroke="#417F56" stroke-width="4"/>
<path d="M99.667 105.833H39.667C38.3003 105.833 37.167 104.7 37.167 103.333C37.167 101.967 38.3003 100.833 39.667 100.833H99.667C101.034 100.833 102.167 101.967 102.167 103.333C102.167 104.7 101.034 105.833 99.667 105.833Z" fill="#417F56"/>
<path d="M48.3336 95.8333H43.0003C39.8003 95.8333 37.167 93.2 37.167 90V61.2667C37.167 58.0667 39.8003 55.4333 43.0003 55.4333H48.3336C51.5336 55.4333 54.1669 58.0667 54.1669 61.2667V90C54.1669 93.2 51.5336 95.8333 48.3336 95.8333ZM43.0003 60.4C42.5337 60.4 42.167 60.7667 42.167 61.2333V90C42.167 90.4667 42.5337 90.8333 43.0003 90.8333H48.3336C48.8002 90.8333 49.1669 90.4667 49.1669 90V61.2667C49.1669 60.8 48.8002 60.4333 48.3336 60.4333H43.0003V60.4Z" fill="#417F56"/>
<path d="M72.3346 95.8333H67.0013C63.8013 95.8333 61.168 93.2 61.168 90V50.6333C61.168 47.4333 63.8013 44.8 67.0013 44.8H72.3346C75.5346 44.8 78.1679 47.4333 78.1679 50.6333V90C78.1679 93.2 75.5346 95.8333 72.3346 95.8333ZM67.0013 49.8C66.5346 49.8 66.168 50.1667 66.168 50.6333V90C66.168 90.4666 66.5346 90.8333 67.0013 90.8333H72.3346C72.8012 90.8333 73.1679 90.4666 73.1679 90V50.6333C73.1679 50.1667 72.8012 49.8 72.3346 49.8H67.0013Z" fill="#417F56"/>
<path d="M96.3336 95.8334H91.0003C87.8003 95.8334 85.167 93.2 85.167 90V40C85.167 36.8 87.8003 34.1667 91.0003 34.1667H96.3336C99.5336 34.1667 102.167 36.8 102.167 40V90C102.167 93.2 99.5336 95.8334 96.3336 95.8334ZM91.0003 39.1667C90.5337 39.1667 90.167 39.5334 90.167 40V90C90.167 90.4667 90.5337 90.8334 91.0003 90.8334H96.3336C96.8002 90.8334 97.1669 90.4667 97.1669 90V40C97.1669 39.5334 96.8002 39.1667 96.3336 39.1667H91.0003Z" fill="#417F56"/>
</svg>
