<svg width="16" height="16" viewBox="0 0 16 16" fill="currentColor" xmlns="http://www.w3.org/2000/svg">
<path d="M9.33337 4.49992H6.66671C6.02671 4.49992 4.83337 4.49992 4.83337 2.66659C4.83337 0.833252 6.02671 0.833252 6.66671 0.833252H9.33337C9.97337 0.833252 11.1667 0.833252 11.1667 2.66659C11.1667 3.30659 11.1667 4.49992 9.33337 4.49992ZM6.66671 1.83325C6.00671 1.83325 5.83337 1.83325 5.83337 2.66659C5.83337 3.49992 6.00671 3.49992 6.66671 3.49992H9.33337C10.1667 3.49992 10.1667 3.32659 10.1667 2.66659C10.1667 1.83325 9.99337 1.83325 9.33337 1.83325H6.66671Z"/>
<path d="M10 15.1667H6C2.25333 15.1667 1.5 13.4467 1.5 10.6667V6.6667C1.5 3.6267 2.6 2.3267 5.30667 2.1867C5.58 2.17337 5.82 2.38004 5.83333 2.66004C5.84667 2.94004 5.63333 3.1667 5.36 3.18004C3.46667 3.2867 2.5 3.85337 2.5 6.6667V10.6667C2.5 13.1334 2.98667 14.1667 6 14.1667H10C13.0133 14.1667 13.5 13.1334 13.5 10.6667V6.6667C13.5 3.85337 12.5333 3.2867 10.64 3.18004C10.3667 3.1667 10.1533 2.9267 10.1667 2.65337C10.18 2.38004 10.42 2.1667 10.6933 2.18004C13.4 2.3267 14.5 3.6267 14.5 6.66004V10.66C14.5 13.4467 13.7467 15.1667 10 15.1667Z"/>
</svg>
