<svg width="20" height="21" viewBox="0 0 20 21" fill="currentColor" xmlns="http://www.w3.org/2000/svg">
<path d="M16.875 7.61969H16.0032L16.1094 6.55588C16.1354 6.29525 16.1066 6.03206 16.0246 5.78327C15.9427 5.53448 15.8096 5.30562 15.6338 5.11143C15.458 4.91724 15.2435 4.76203 15.0041 4.65581C14.7647 4.54958 14.5057 4.4947 14.2437 4.49469H4.50625C4.24427 4.49471 3.9852 4.54962 3.74573 4.65589C3.50627 4.76215 3.29173 4.91741 3.11594 5.11165C2.94015 5.3059 2.80701 5.53482 2.7251 5.78366C2.64319 6.03251 2.61433 6.29576 2.64037 6.55644L3.4963 16.1166C3.51309 16.2665 3.48018 15.9554 3.59993 16.5554H1.73055C1.56479 16.5554 1.40582 16.6212 1.28861 16.7384C1.1714 16.8556 1.10555 17.0146 1.10555 17.1804C1.10555 17.3461 1.1714 17.5051 1.28861 17.6223C1.40582 17.7395 1.56479 17.8054 1.73055 17.8054L17 17.9947C17.1658 17.9947 17.3247 17.9288 17.4419 17.8116C17.5591 17.6944 17.625 17.5354 17.625 17.3697C17.625 17.2039 17.5591 17.045 17.4419 16.9277C17.3247 16.8105 17.1658 16.7447 17 16.7447H15.1307C15.1827 16.6033 15.2175 16.4561 15.2342 16.3064L15.4405 13.2447H16.875C17.3721 13.2441 17.8487 13.0464 18.2002 12.6949C18.5517 12.3434 18.7495 11.8668 18.75 11.3697V9.49469C18.7495 8.99758 18.5517 8.52098 18.2002 8.16947C17.8487 7.81796 17.3721 7.62024 16.875 7.61969ZM5.66128 16.5554C5.50625 16.5559 5.3566 16.4985 5.24167 16.3944C5.12673 16.2904 5.05478 16.1472 5.03991 15.9929L4.13784 6.58451C4.12913 6.49758 4.13874 6.40979 4.16603 6.32679C4.19332 6.2438 4.23769 6.16744 4.29629 6.10264C4.35489 6.03783 4.42641 5.98602 4.50625 5.95054C4.58608 5.91506 4.67247 5.8967 4.75984 5.89664L14.0204 5.95054C14.1077 5.9506 14.1941 5.96895 14.2739 6.0044C14.3537 6.03986 14.4252 6.09163 14.4838 6.15639C14.5424 6.22116 14.5868 6.29747 14.6141 6.38043C14.6414 6.46338 14.6511 6.55114 14.6424 6.63804L14.0204 15.9935C14.0054 16.1477 13.9334 16.2908 13.8184 16.3948C13.7034 16.4987 13.5538 16.556 13.3988 16.5554H5.66128ZM17.5 11.3697C17.4999 11.5354 17.434 11.6943 17.3168 11.8115C17.1996 11.9287 17.0407 11.9946 16.875 11.9947H15.5656L15.8781 8.86969H16.875C17.0407 8.86979 17.1996 8.93567 17.3168 9.05286C17.434 9.17005 17.4999 9.32896 17.5 9.49469V11.3697Z"/>
</svg>
