<svg width="16" height="17" viewBox="0 0 16 17" fill="currentColor" xmlns="http://www.w3.org/2000/svg">
<path d="M8.00016 14.9336C7.7935 14.9336 7.5935 14.9069 7.42683 14.8469C4.88016 13.9736 0.833496 10.8736 0.833496 6.29356C0.833496 3.96023 2.72016 2.06689 5.04016 2.06689C6.16683 2.06689 7.22016 2.50689 8.00016 3.29356C8.78016 2.50689 9.8335 2.06689 10.9602 2.06689C13.2802 2.06689 15.1668 3.96689 15.1668 6.29356C15.1668 10.8802 11.1202 13.9736 8.5735 14.8469C8.40683 14.9069 8.20683 14.9336 8.00016 14.9336ZM5.04016 3.06689C3.2735 3.06689 1.8335 4.51356 1.8335 6.29356C1.8335 10.8469 6.2135 13.3802 7.7535 13.9069C7.8735 13.9469 8.1335 13.9469 8.2535 13.9069C9.78683 13.3802 14.1735 10.8536 14.1735 6.29356C14.1735 4.51356 12.7335 3.06689 10.9668 3.06689C9.9535 3.06689 9.0135 3.54023 8.40683 4.36023C8.22016 4.61356 7.7935 4.61356 7.60683 4.36023C6.98683 3.53356 6.0535 3.06689 5.04016 3.06689Z"/>
</svg>
