<svg width="24" height="25" viewBox="0 0 24 25" fill="none" xmlns="http://www.w3.org/2000/svg">
<path d="M7.68043 1.93945C4.24002 1.93945 1.44043 4.73905 1.44043 8.17945V16.8195C1.44043 20.2599 4.24002 23.0595 7.68043 23.0595H16.3204C19.7608 23.0595 22.5604 20.2599 22.5604 16.8195V8.17945C22.5604 4.73905 19.7608 1.93945 16.3204 1.93945H7.68043ZM7.68043 2.89945H16.3204C19.2419 2.89945 21.6004 5.25794 21.6004 8.17945V16.8195C21.6004 19.741 19.2419 22.0995 16.3204 22.0995H7.68043C4.75892 22.0995 2.40043 19.741 2.40043 16.8195V8.17945C2.40043 5.25794 4.75892 2.89945 7.68043 2.89945ZM17.7604 5.77945C17.5058 5.77945 17.2616 5.8806 17.0816 6.06063C16.9016 6.24067 16.8004 6.48485 16.8004 6.73945C16.8004 6.99406 16.9016 7.23824 17.0816 7.41828C17.2616 7.59831 17.5058 7.69945 17.7604 7.69945C18.015 7.69945 18.2592 7.59831 18.4393 7.41828C18.6193 7.23824 18.7204 6.99406 18.7204 6.73945C18.7204 6.48485 18.6193 6.24067 18.4393 6.06063C18.2592 5.8806 18.015 5.77945 17.7604 5.77945ZM12.0004 7.21945C9.09005 7.21945 6.72043 9.58907 6.72043 12.4995C6.72043 15.4098 9.09005 17.7795 12.0004 17.7795C14.9108 17.7795 17.2804 15.4098 17.2804 12.4995C17.2804 9.58907 14.9108 7.21945 12.0004 7.21945ZM12.0004 8.17945C14.392 8.17945 16.3204 10.1079 16.3204 12.4995C16.3204 14.891 14.392 16.8195 12.0004 16.8195C9.60887 16.8195 7.68043 14.891 7.68043 12.4995C7.68043 10.1079 9.60887 8.17945 12.0004 8.17945Z" fill="#EDEDED"/>
</svg>
