<svg width="140" height="140" viewBox="0 0 140 140" fill="currentColor" xmlns="http://www.w3.org/2000/svg">
<rect x="2" y="2" width="136" height="136" rx="68" stroke="#417F56" stroke-width="4"/>
<path d="M89.466 105.833H51.1993C42.8993 105.833 36.166 99.0999 36.166 90.7999V68.3667C36.166 60.0667 42.8993 53.3333 51.1993 53.3333H89.466C97.766 53.3333 104.499 60.0667 104.499 68.3667V73.1667C104.499 74.5334 103.366 75.6667 101.999 75.6667H95.266C94.0993 75.6667 93.0327 76.1 92.266 76.9L92.2327 76.9334C91.2993 77.8334 90.866 79.0666 90.966 80.3332C91.166 82.5332 93.266 84.2999 95.666 84.2999H101.999C103.366 84.2999 104.499 85.4332 104.499 86.7999V90.7666C104.499 99.0999 97.766 105.833 89.466 105.833ZM51.1993 58.3333C45.666 58.3333 41.166 62.8333 41.166 68.3667V90.7999C41.166 96.3333 45.666 100.833 51.1993 100.833H89.466C94.9993 100.833 99.4993 96.3333 99.4993 90.7999V89.3333H95.666C90.6327 89.3333 86.366 85.5999 85.966 80.7999C85.6993 78.0666 86.6993 75.3667 88.6993 73.4C90.4327 71.6334 92.766 70.6667 95.266 70.6667H99.4993V68.3667C99.4993 62.8333 94.9993 58.3333 89.466 58.3333H51.1993Z" fill="#417F56"/>
<path d="M38.666 73.8667C37.2993 73.8667 36.166 72.7334 36.166 71.3667V56.1336C36.166 51.1669 39.2993 46.6667 43.9327 44.9L70.3993 34.9C73.1327 33.8667 76.166 34.2335 78.5327 35.9002C80.9327 37.5669 82.3327 40.2668 82.3327 43.1668V55.8335C82.3327 57.2001 81.1993 58.3335 79.8327 58.3335C78.466 58.3335 77.3327 57.2001 77.3327 55.8335V43.1668C77.3327 41.9002 76.7327 40.7335 75.666 40.0001C74.5993 39.2668 73.3327 39.1001 72.1327 39.5668L45.666 49.5668C42.966 50.6001 41.1327 53.2336 41.1327 56.1336V71.3667C41.166 72.7667 40.0327 73.8667 38.666 73.8667Z" fill="#417F56"/>
<path d="M76.9993 72.5H53.666C52.2993 72.5 51.166 71.3667 51.166 70C51.166 68.6333 52.2993 67.5 53.666 67.5H76.9993C78.366 67.5 79.4993 68.6333 79.4993 70C79.4993 71.3667 78.366 72.5 76.9993 72.5Z" fill="#417F56"/>
</svg>
