<svg width="16" height="16" viewBox="0 0 16 16" fill="currentColor" xmlns="http://www.w3.org/2000/svg">
<path d="M12.1263 11.8335H5.02634C4.36634 11.8335 3.733 11.5535 3.28634 11.0668C2.83967 10.5802 2.61301 9.92683 2.66634 9.26683L3.21968 2.62683C3.23968 2.42016 3.16634 2.22017 3.02634 2.06683C2.88634 1.9135 2.69301 1.8335 2.48634 1.8335H1.33301C1.05967 1.8335 0.833008 1.60683 0.833008 1.3335C0.833008 1.06016 1.05967 0.833496 1.33301 0.833496H2.49301C2.97968 0.833496 3.43967 1.04016 3.76634 1.39349C3.94634 1.59349 4.07967 1.82683 4.15301 2.08683H12.4797C13.153 2.08683 13.773 2.3535 14.2263 2.8335C14.673 3.32016 14.8997 3.9535 14.8463 4.62683L14.4863 9.62683C14.413 10.8468 13.3463 11.8335 12.1263 11.8335ZM4.18634 3.08016L3.66634 9.34682C3.63301 9.73349 3.75967 10.1002 4.01967 10.3868C4.27967 10.6735 4.63967 10.8268 5.02634 10.8268H12.1263C12.8197 10.8268 13.4463 10.2402 13.4997 9.54683L13.8597 4.54683C13.8863 4.1535 13.7597 3.78017 13.4997 3.50684C13.2397 3.22684 12.8797 3.07349 12.4863 3.07349H4.18634V3.08016Z"/>
<path d="M10.8333 15.1667C10.1 15.1667 9.5 14.5667 9.5 13.8333C9.5 13.1 10.1 12.5 10.8333 12.5C11.5667 12.5 12.1667 13.1 12.1667 13.8333C12.1667 14.5667 11.5667 15.1667 10.8333 15.1667ZM10.8333 13.5C10.6467 13.5 10.5 13.6467 10.5 13.8333C10.5 14.02 10.6467 14.1667 10.8333 14.1667C11.02 14.1667 11.1667 14.02 11.1667 13.8333C11.1667 13.6467 11.02 13.5 10.8333 13.5Z"/>
<path d="M5.50033 15.1667C4.76699 15.1667 4.16699 14.5667 4.16699 13.8333C4.16699 13.1 4.76699 12.5 5.50033 12.5C6.23366 12.5 6.83366 13.1 6.83366 13.8333C6.83366 14.5667 6.23366 15.1667 5.50033 15.1667ZM5.50033 13.5C5.31366 13.5 5.16699 13.6467 5.16699 13.8333C5.16699 14.02 5.31366 14.1667 5.50033 14.1667C5.68699 14.1667 5.83366 14.02 5.83366 13.8333C5.83366 13.6467 5.68699 13.5 5.50033 13.5Z"/>
<path d="M14 5.8335H6C5.72667 5.8335 5.5 5.60683 5.5 5.3335C5.5 5.06016 5.72667 4.8335 6 4.8335H14C14.2733 4.8335 14.5 5.06016 14.5 5.3335C14.5 5.60683 14.2733 5.8335 14 5.8335Z"/>
</svg>
