<svg width="16" height="16" viewBox="0 0 16 16" fill="currentColor" xmlns="http://www.w3.org/2000/svg">
<path d="M8.66654 9.83325H7.99987C7.72654 9.83325 7.49987 9.60659 7.49987 9.33325C7.49987 9.05992 7.72654 8.83325 7.99987 8.83325H8.66654C9.12654 8.83325 9.49987 8.45992 9.49987 7.99992V1.83325H3.99987C3.21321 1.83325 2.49319 2.25991 2.10652 2.94657C1.97319 3.18657 1.66655 3.27327 1.42655 3.13993C1.18655 3.0066 1.09986 2.69992 1.23319 2.45992C1.79319 1.45992 2.85321 0.833252 3.99987 0.833252H9.99987C10.2732 0.833252 10.4999 1.05992 10.4999 1.33325V7.99992C10.4999 9.01325 9.67987 9.83325 8.66654 9.83325Z"/>
<path d="M12.6666 13.8333H12C11.7266 13.8333 11.5 13.6066 11.5 13.3333C11.5 12.8733 11.1266 12.4999 10.6666 12.4999C10.2066 12.4999 9.83331 12.8733 9.83331 13.3333C9.83331 13.6066 9.60665 13.8333 9.33331 13.8333H6.66665C6.39331 13.8333 6.16665 13.6066 6.16665 13.3333C6.16665 12.8733 5.79331 12.4999 5.33331 12.4999C4.87331 12.4999 4.49998 12.8733 4.49998 13.3333C4.49998 13.6066 4.27331 13.8333 3.99998 13.8333H3.33331C1.95331 13.8333 0.833313 12.7133 0.833313 11.3333C0.833313 11.0599 1.05998 10.8333 1.33331 10.8333C1.60665 10.8333 1.83331 11.0599 1.83331 11.3333C1.83331 12.1599 2.50665 12.8333 3.33331 12.8333H3.56663C3.78663 12.0666 4.49331 11.4999 5.33331 11.4999C6.17331 11.4999 6.88 12.0666 7.1 12.8333H8.90664C9.12664 12.0666 9.83332 11.4999 10.6733 11.4999C11.5133 11.4999 12.22 12.0666 12.44 12.8333H12.6666C13.4933 12.8333 14.1666 12.1599 14.1666 11.3333V9.83325H12.6666C12.0266 9.83325 11.5 9.30659 11.5 8.66659V6.66659C11.5 6.02659 12.02 5.49992 12.6666 5.49992L11.9533 4.25326C11.8066 3.99326 11.5267 3.83325 11.2267 3.83325H10.5V7.99992C10.5 9.01325 9.67998 9.83325 8.66665 9.83325H7.99998C7.72665 9.83325 7.49998 9.60659 7.49998 9.33325C7.49998 9.05992 7.72665 8.83325 7.99998 8.83325H8.66665C9.12665 8.83325 9.49998 8.45992 9.49998 7.99992V3.33325C9.49998 3.05992 9.72665 2.83325 9.99998 2.83325H11.2267C11.8867 2.83325 12.4933 3.1866 12.82 3.75993L13.96 5.75326C14.0466 5.90659 14.0466 6.09992 13.96 6.25326C13.8733 6.40659 13.7066 6.49992 13.5266 6.49992H12.6666C12.5733 6.49992 12.5 6.57325 12.5 6.66659V8.66659C12.5 8.75992 12.5733 8.83325 12.6666 8.83325H14.6666C14.94 8.83325 15.1666 9.05992 15.1666 9.33325V11.3333C15.1666 12.7133 14.0466 13.8333 12.6666 13.8333Z"/>
<path d="M5.33333 15.1667C4.32 15.1667 3.5 14.3467 3.5 13.3333C3.5 12.32 4.32 11.5 5.33333 11.5C6.34667 11.5 7.16667 12.32 7.16667 13.3333C7.16667 14.3467 6.34667 15.1667 5.33333 15.1667ZM5.33333 12.5C4.87333 12.5 4.5 12.8733 4.5 13.3333C4.5 13.7933 4.87333 14.1667 5.33333 14.1667C5.79333 14.1667 6.16667 13.7933 6.16667 13.3333C6.16667 12.8733 5.79333 12.5 5.33333 12.5Z"/>
<path d="M10.6666 15.1667C9.65331 15.1667 8.83331 14.3467 8.83331 13.3333C8.83331 12.32 9.65331 11.5 10.6666 11.5C11.68 11.5 12.5 12.32 12.5 13.3333C12.5 14.3467 11.68 15.1667 10.6666 15.1667ZM10.6666 12.5C10.2066 12.5 9.83331 12.8733 9.83331 13.3333C9.83331 13.7933 10.2066 14.1667 10.6666 14.1667C11.1266 14.1667 11.5 13.7933 11.5 13.3333C11.5 12.8733 11.1266 12.5 10.6666 12.5Z"/>
<path d="M14.6667 9.83333H12.6667C12.0267 9.83333 11.5 9.30667 11.5 8.66667V6.66667C11.5 6.02667 12.0267 5.5 12.6667 5.5H13.5267C13.7067 5.5 13.8733 5.59334 13.96 5.75334L15.1 7.75334C15.14 7.82667 15.1667 7.91333 15.1667 8V9.33333C15.1667 9.60667 14.94 9.83333 14.6667 9.83333ZM12.6667 6.5C12.5733 6.5 12.5 6.57333 12.5 6.66667V8.66667C12.5 8.76 12.5733 8.83333 12.6667 8.83333H14.1667V8.13334L13.2333 6.5H12.6667Z"/>
<path d="M5.33331 5.83325H1.33331C1.05998 5.83325 0.833313 5.60659 0.833313 5.33325C0.833313 5.05992 1.05998 4.83325 1.33331 4.83325H5.33331C5.60665 4.83325 5.83331 5.05992 5.83331 5.33325C5.83331 5.60659 5.60665 5.83325 5.33331 5.83325Z"/>
<path d="M3.99998 7.83325H1.33331C1.05998 7.83325 0.833313 7.60659 0.833313 7.33325C0.833313 7.05992 1.05998 6.83325 1.33331 6.83325H3.99998C4.27331 6.83325 4.49998 7.05992 4.49998 7.33325C4.49998 7.60659 4.27331 7.83325 3.99998 7.83325Z"/>
<path d="M2.66665 9.83325H1.33331C1.05998 9.83325 0.833313 9.60659 0.833313 9.33325C0.833313 9.05992 1.05998 8.83325 1.33331 8.83325H2.66665C2.93998 8.83325 3.16665 9.05992 3.16665 9.33325C3.16665 9.60659 2.93998 9.83325 2.66665 9.83325Z"/>
</svg>
