<svg width="16" height="17" viewBox="0 0 16 17" fill="currentColor" xmlns="http://www.w3.org/2000/svg">
<path d="M8.66671 10.3334H1.33337C1.06004 10.3334 0.833374 10.1067 0.833374 9.83337V4.50004C0.833374 2.75337 2.25337 1.33337 4.00004 1.33337H10C10.2734 1.33337 10.5 1.56004 10.5 1.83337V8.50004C10.5 9.51337 9.68004 10.3334 8.66671 10.3334ZM1.83337 9.33337H8.66671C9.12671 9.33337 9.50004 8.96004 9.50004 8.50004V2.33337H4.00004C2.80671 2.33337 1.83337 3.30671 1.83337 4.50004V9.33337Z"/>
<path d="M12.6667 14.3334H12C11.7267 14.3334 11.5 14.1067 11.5 13.8334C11.5 13.3734 11.1267 13 10.6667 13C10.2067 13 9.83337 13.3734 9.83337 13.8334C9.83337 14.1067 9.60671 14.3334 9.33337 14.3334H6.66671C6.39337 14.3334 6.16671 14.1067 6.16671 13.8334C6.16671 13.3734 5.79337 13 5.33337 13C4.87337 13 4.50004 13.3734 4.50004 13.8334C4.50004 14.1067 4.27337 14.3334 4.00004 14.3334H3.33337C1.95337 14.3334 0.833374 13.2134 0.833374 11.8334V9.83337C0.833374 9.56004 1.06004 9.33337 1.33337 9.33337H8.66671C9.12671 9.33337 9.50004 8.96004 9.50004 8.50004V3.83337C9.50004 3.56004 9.72671 3.33337 10 3.33337H11.2267C11.8867 3.33337 12.4934 3.68672 12.82 4.26005L13.96 6.25338C14.0467 6.40671 14.0467 6.60004 13.96 6.75338C13.8734 6.90671 13.7067 7.00004 13.5267 7.00004H12.6667C12.5734 7.00004 12.5 7.07337 12.5 7.16671V9.16671C12.5 9.26004 12.5734 9.33337 12.6667 9.33337H14.6667C14.94 9.33337 15.1667 9.56004 15.1667 9.83337V11.8334C15.1667 13.2134 14.0467 14.3334 12.6667 14.3334ZM12.4334 13.3334H12.6667C13.4934 13.3334 14.1667 12.66 14.1667 11.8334V10.3334H12.6667C12.0267 10.3334 11.5 9.80671 11.5 9.16671V7.16671C11.5 6.52671 12.02 6.00004 12.6667 6.00004L11.9534 4.75338C11.8067 4.49338 11.5267 4.33337 11.2267 4.33337H10.5V8.50004C10.5 9.51337 9.68004 10.3334 8.66671 10.3334H1.83337V11.8334C1.83337 12.66 2.50671 13.3334 3.33337 13.3334H3.56671C3.78671 12.5667 4.49337 12 5.33337 12C6.17337 12 6.88004 12.5667 7.10004 13.3334H8.9067C9.1267 12.5667 9.83338 12 10.6734 12C11.5134 12 12.2134 12.5667 12.4334 13.3334Z"/>
<path d="M5.33333 15.6667C4.32 15.6667 3.5 14.8467 3.5 13.8333C3.5 12.82 4.32 12 5.33333 12C6.34667 12 7.16667 12.82 7.16667 13.8333C7.16667 14.8467 6.34667 15.6667 5.33333 15.6667ZM5.33333 13C4.87333 13 4.5 13.3733 4.5 13.8333C4.5 14.2933 4.87333 14.6667 5.33333 14.6667C5.79333 14.6667 6.16667 14.2933 6.16667 13.8333C6.16667 13.3733 5.79333 13 5.33333 13Z"/>
<path d="M10.6667 15.6667C9.65337 15.6667 8.83337 14.8467 8.83337 13.8333C8.83337 12.82 9.65337 12 10.6667 12C11.68 12 12.5 12.82 12.5 13.8333C12.5 14.8467 11.68 15.6667 10.6667 15.6667ZM10.6667 13C10.2067 13 9.83337 13.3733 9.83337 13.8333C9.83337 14.2933 10.2067 14.6667 10.6667 14.6667C11.1267 14.6667 11.5 14.2933 11.5 13.8333C11.5 13.3733 11.1267 13 10.6667 13Z"/>
<path d="M14.6667 10.3333H12.6667C12.0267 10.3333 11.5 9.80667 11.5 9.16667V7.16667C11.5 6.52667 12.0267 6 12.6667 6H13.5267C13.7067 6 13.8733 6.09334 13.96 6.25334L15.1 8.25334C15.14 8.32667 15.1667 8.41333 15.1667 8.5V9.83333C15.1667 10.1067 14.94 10.3333 14.6667 10.3333ZM12.6667 7C12.5733 7 12.5 7.07333 12.5 7.16667V9.16667C12.5 9.26 12.5733 9.33333 12.6667 9.33333H14.1667V8.63334L13.2333 7H12.6667Z"/>
</svg>
