<svg width="24" height="25" viewBox="0 0 24 25" fill="none" xmlns="http://www.w3.org/2000/svg">
<path d="M12 14.25C11.59 14.25 11.25 13.91 11.25 13.5V8.25C11.25 7.84 11.59 7.5 12 7.5C12.41 7.5 12.75 7.84 12.75 8.25V13.5C12.75 13.91 12.41 14.25 12 14.25Z" fill="#353535"/>
<path d="M12 17.75C11.73 17.75 11.48 17.65 11.29 17.46C11.2 17.36 11.13 17.25 11.07 17.13C11.02 17.01 11 16.88 11 16.75C11 16.49 11.11 16.23 11.29 16.04C11.66 15.67 12.34 15.67 12.71 16.04C12.89 16.23 13 16.49 13 16.75C13 16.88 12.97 17.01 12.92 17.13C12.87 17.25 12.8 17.36 12.71 17.46C12.52 17.65 12.27 17.75 12 17.75Z" fill="#353535"/>
<path d="M12.0002 23.25C11.3302 23.25 10.6502 23.08 10.0502 22.73L4.11017 19.3C2.91017 18.6 2.16016 17.31 2.16016 15.92V9.07999C2.16016 7.68999 2.91017 6.39999 4.11017 5.69999L10.0502 2.27C11.2502 1.57 12.7402 1.57 13.9502 2.27L19.8902 5.69999C21.0902 6.39999 21.8402 7.68999 21.8402 9.07999V15.92C21.8402 17.31 21.0902 18.6 19.8902 19.3L13.9502 22.73C13.3502 23.08 12.6702 23.25 12.0002 23.25ZM12.0002 3.24998C11.5902 3.24998 11.1702 3.35998 10.8002 3.56998L4.86017 6.99998C4.12017 7.42998 3.66016 8.21999 3.66016 9.07999V15.92C3.66016 16.77 4.12017 17.57 4.86017 18L10.8002 21.43C11.5402 21.86 12.4602 21.86 13.1902 21.43L19.1302 18C19.8702 17.57 20.3302 16.78 20.3302 15.92V9.07999C20.3302 8.22999 19.8702 7.42998 19.1302 6.99998L13.1902 3.56998C12.8302 3.35998 12.4102 3.24998 12.0002 3.24998Z" fill="#353535"/>
</svg>
